<svg width="23" height="27" viewBox="0 0 23 27" fill="none" xmlns="http://www.w3.org/2000/svg">
<path d="M22.2639 20.8459L15.334 11.258V1.92857H17.2507V0H5.75025V1.92857H7.667V11.258L0.737015 20.8459C0.319005 21.424 0.0680826 22.1071 0.0120121 22.8197C-0.0440583 23.5324 0.0969093 24.2467 0.419317 24.8837C0.741724 25.5207 1.233 26.0556 1.83879 26.4291C2.44457 26.8026 3.14125 27.0002 3.85172 27H19.1483C19.8588 27.0002 20.5554 26.8026 21.1612 26.4291C21.767 26.0556 22.2583 25.5207 22.5807 24.8837C22.9031 24.2467 23.0441 23.5324 22.988 22.8197C22.9319 22.1071 22.682 21.424 22.2639 20.8459ZM9.58374 11.8848V1.92857H13.4172V11.8848L15.9789 15.4286H7.02201L9.58374 11.8848ZM19.1492 25.0714H3.85268C3.49597 25.071 3.14629 24.9715 2.84226 24.7838C2.53822 24.5961 2.29164 24.3275 2.12974 24.0077C1.96784 23.6878 1.8969 23.3292 1.92477 22.9714C1.95264 22.6136 2.07822 22.2705 2.28766 21.9799L5.62854 17.3571H17.3724L20.7143 21.9799C20.9237 22.2705 21.0493 22.6136 21.0771 22.9714C21.105 23.3292 21.0341 23.6878 20.8722 24.0077C20.7103 24.3275 20.4637 24.5961 20.1597 24.7838C19.8556 24.9715 19.506 25.071 19.1492 25.0714Z" fill="#5B78AD"/>
</svg>
