<svg width="27" height="27" viewBox="0 0 27 27" fill="none" xmlns="http://www.w3.org/2000/svg">
<path d="M13.5 11.9204C13.9189 11.9204 14.3207 12.0869 14.6169 12.3831C14.9131 12.6793 15.0796 13.0811 15.0796 13.5C15.0796 13.9189 14.9131 14.3207 14.6169 14.6169C14.3207 14.9131 13.9189 15.0796 13.5 15.0796C13.0811 15.0796 12.6793 14.9131 12.3831 14.6169C12.0869 14.3207 11.9204 13.9189 11.9204 13.5C11.9204 13.0811 12.0869 12.6793 12.3831 12.3831C12.6793 12.0869 13.0811 11.9204 13.5 11.9204ZM1.21109 1.21109C3.46985 -1.04766 8.36646 -0.0367522 13.5 3.32769C18.6335 -0.0367522 23.5301 -1.04766 25.7889 1.21109C28.0477 3.46985 27.0368 8.36646 23.6723 13.5C27.0368 18.6335 28.0477 23.5301 25.7889 25.7889C23.5301 28.0477 18.6335 27.0368 13.5 23.6723C8.36646 27.0368 3.46985 28.0477 1.21109 25.7889C-1.04766 23.5301 -0.0367522 18.6335 3.32769 13.5C-0.0367522 8.36646 -1.04766 3.46985 1.21109 1.21109ZM19.0916 7.90839C20.0551 8.88771 20.9397 9.88283 21.7611 10.8779C23.9408 7.5135 24.7306 4.62292 23.5459 3.45406C22.3771 2.26939 19.4865 3.05917 16.1221 5.23895C17.1172 6.06031 18.1123 6.94486 19.0916 7.90839ZM7.90839 19.0916C6.94486 18.1123 6.06031 17.1172 5.23895 16.1221C3.05917 19.4865 2.26939 22.3771 3.45406 23.5459C4.62292 24.7306 7.5135 23.9408 10.8779 21.7611C9.88283 20.9397 8.88771 20.0551 7.90839 19.0916ZM3.45406 3.45406C2.26939 4.62292 3.05917 7.5135 5.23895 10.8779C6.06031 9.88283 6.94486 8.88771 7.90839 7.90839C8.88771 6.94486 9.88283 6.06031 10.8779 5.23895C7.5135 3.05917 4.62292 2.26939 3.45406 3.45406ZM10.1514 16.8486C11.257 17.9543 12.3943 18.9652 13.5 19.8656C14.6057 18.9652 15.743 17.9543 16.8486 16.8486C17.9543 15.743 18.9652 14.6057 19.8656 13.5C18.9652 12.3943 17.9543 11.257 16.8486 10.1514C15.743 9.04567 14.6057 8.03475 13.5 7.13441C12.3943 8.03475 11.257 9.04567 10.1514 10.1514C9.04567 11.257 8.03475 12.3943 7.13441 13.5C8.03475 14.6057 9.04567 15.743 10.1514 16.8486ZM23.5459 23.5459C24.7306 22.3771 23.9408 19.4865 21.7611 16.1221C20.9397 17.1172 20.0551 18.1123 19.0916 19.0916C18.1123 20.0551 17.1172 20.9397 16.1221 21.7611C19.4865 23.9408 22.3771 24.7306 23.5459 23.5459Z" fill="#434AAB"/>
</svg>
